<svg width="34" height="28" viewBox="0 0 34 28" fill="none" xmlns="http://www.w3.org/2000/svg">
<path d="M30.3333 23.9998H26.9999V9.4165L16.9999 15.6665L6.99992 9.4165V23.9998H3.66659V3.99984H5.66659L16.9999 11.0832L28.3333 3.99984H30.3333V23.9998ZM30.3333 0.666504H3.66659C1.81659 0.666504 0.333252 2.14984 0.333252 3.99984V23.9998C0.333252 24.8839 0.684441 25.7317 1.30956 26.3569C1.93468 26.982 2.78253 27.3332 3.66659 27.3332H30.3333C31.2173 27.3332 32.0652 26.982 32.6903 26.3569C33.3154 25.7317 33.6666 24.8839 33.6666 23.9998V3.99984C33.6666 3.11578 33.3154 2.26794 32.6903 1.64281C32.0652 1.01769 31.2173 0.666504 30.3333 0.666504Z" fill="#E9E9EC"/>
</svg>
