<svg width="50" height="50" viewBox="0 0 50 50" fill="none" xmlns="http://www.w3.org/2000/svg">
<path fill-rule="evenodd" clip-rule="evenodd" d="M26.5626 5.72925C26.5626 5.31485 26.398 4.91742 26.1049 4.62439C25.8119 4.33137 25.4145 4.16675 25.0001 4.16675C24.5857 4.16675 24.1883 4.33137 23.8952 4.62439C23.6022 4.91742 23.4376 5.31485 23.4376 5.72925V9.37508H19.3251C18.5932 9.37476 17.8782 9.59471 17.273 10.0063L13.7418 12.4105C13.6551 12.4692 13.5527 12.5004 13.448 12.5001H4.90218C4.48777 12.5001 4.09035 12.6647 3.79732 12.9577C3.5043 13.2508 3.33968 13.6482 3.33968 14.0626C3.33968 14.477 3.5043 14.8744 3.79732 15.1674C4.09035 15.4605 4.48777 15.6251 4.90218 15.6251H8.18759L1.17301 31.6251C1.04051 31.9373 1.0115 32.2838 1.09023 32.6137C1.16897 32.9436 1.3513 33.2397 1.61051 33.4584C1.77718 33.5917 1.94593 33.7188 2.25426 33.9188C2.64176 34.1709 3.19593 34.498 3.90426 34.8209C5.32093 35.4688 7.36676 36.1126 9.89592 36.1126C11.9626 36.1165 14.0061 35.676 15.8876 34.8209C16.5959 34.498 17.1501 34.1709 17.5376 33.9188C17.8501 33.7168 18.0168 33.5897 18.1834 33.4543C18.4447 33.2379 18.6285 32.9425 18.7071 32.6125C18.7856 32.2825 18.7546 31.9359 18.6188 31.6251L11.6022 15.6251H13.448C14.1793 15.6251 14.8938 15.4042 15.498 14.9938L19.0313 12.5897C19.1174 12.5314 19.219 12.5002 19.323 12.5001H23.4376V42.7084H14.0897C13.6753 42.7084 13.2778 42.873 12.9848 43.1661C12.6918 43.4591 12.5272 43.8565 12.5272 44.2709C12.5272 44.6853 12.6918 45.0827 12.9848 45.3758C13.2778 45.6688 13.6753 45.8334 14.0897 45.8334H35.9105C36.3249 45.8334 36.7223 45.6688 37.0154 45.3758C37.3084 45.0827 37.473 44.6853 37.473 44.2709C37.473 43.8565 37.3084 43.4591 37.0154 43.1661C36.7223 42.873 36.3249 42.7084 35.9105 42.7084H26.5626V12.5001H30.6751C30.7793 12.5001 30.8834 12.5313 30.9668 12.5897L34.5022 14.9938C35.1063 15.4042 35.8209 15.6251 36.5522 15.6251H38.398L31.3813 31.6251C31.241 31.945 31.212 32.3027 31.2989 32.6411C31.3857 32.9795 31.5835 33.279 31.8605 33.4918C31.8855 33.5105 31.8605 33.4918 31.8647 33.4918C32.0713 33.6474 32.287 33.7907 32.5105 33.9209C32.8959 34.1542 33.448 34.4542 34.1563 34.7542C36.0401 35.5417 38.0625 35.944 40.1043 35.9376C42.1468 35.9436 44.1699 35.5406 46.0543 34.7522C46.7584 34.4543 47.3126 34.1542 47.7001 33.9209C47.9228 33.7894 48.1384 33.6462 48.3459 33.4918C48.623 33.279 48.8207 32.9795 48.9076 32.6411C48.9944 32.3027 48.9654 31.945 48.8251 31.6251L41.8126 15.6251H45.1001C45.5145 15.6251 45.9119 15.4605 46.2049 15.1674C46.498 14.8744 46.6626 14.477 46.6626 14.0626C46.6626 13.6482 46.498 13.2508 46.2049 12.9577C45.9119 12.6647 45.5145 12.5001 45.1001 12.5001H36.5542C36.4503 12.5 36.3487 12.4688 36.2626 12.4105L32.7272 10.0063C32.1226 9.59511 31.4083 9.37517 30.6772 9.37508H26.5626V5.72925ZM4.56884 31.6626C6.20864 32.5352 8.03843 32.9896 9.89592 32.9855C11.7534 32.9896 13.5832 32.5352 15.223 31.6626L9.89592 19.5167L4.56884 31.6626ZM34.798 31.6126C34.9688 31.6959 35.1605 31.7855 35.3709 31.8751C36.4751 32.3397 38.0897 32.8126 40.1043 32.8126C41.9409 32.8178 43.7549 32.4076 45.4105 31.6126L40.1043 19.5147L34.798 31.6126Z" fill="#87E7AD"/>
</svg>
