<svg width="38" height="38" viewBox="0 0 38 38" fill="none" xmlns="http://www.w3.org/2000/svg">
<path fill-rule="evenodd" clip-rule="evenodd" d="M0.666504 3.72984C0.666504 2.91739 0.989247 2.13822 1.56373 1.56374C2.13822 0.989251 2.91739 0.666508 3.72984 0.666508H34.2665C34.6691 0.66585 35.0679 0.744613 35.4401 0.898286C35.8122 1.05196 36.1504 1.27752 36.4353 1.56207C36.7201 1.84661 36.946 2.18455 37.1001 2.55652C37.2542 2.9285 37.3334 3.32722 37.3332 3.72984V34.2665C37.3336 34.6692 37.2546 35.068 37.1008 35.4402C36.9469 35.8124 36.7212 36.1505 36.4365 36.4354C36.1519 36.7202 35.8138 36.9461 35.4417 37.1002C35.0697 37.2542 34.6709 37.3334 34.2682 37.3332H3.72984C3.32741 37.3332 2.92894 37.2539 2.55717 37.0998C2.1854 36.9458 1.84762 36.72 1.56314 36.4354C1.27867 36.1507 1.05306 35.8128 0.899208 35.441C0.745359 35.0691 0.666285 34.6706 0.666504 34.2682V3.72984ZM15.1798 14.6465H20.1448V17.1398C20.8615 15.7065 22.6948 14.4165 25.4498 14.4165C30.7315 14.4165 31.9832 17.2715 31.9832 22.5098V32.2132H26.6382V23.7032C26.6382 20.7198 25.9215 19.0365 24.1015 19.0365C21.5765 19.0365 20.5265 20.8515 20.5265 23.7032V32.2132H15.1798V14.6465ZM6.01317 31.9848H11.3598V14.4165H6.01317V31.9832V31.9848ZM12.1248 8.68651C12.1349 9.1443 12.0535 9.59949 11.8852 10.0254C11.717 10.4512 11.4654 10.8392 11.1452 11.1666C10.825 11.4939 10.4427 11.754 10.0206 11.9315C9.59852 12.1091 9.14524 12.2005 8.68734 12.2005C8.22944 12.2005 7.77615 12.1091 7.35408 11.9315C6.93201 11.754 6.54965 11.4939 6.22945 11.1666C5.90925 10.8392 5.65766 10.4512 5.48944 10.0254C5.32122 9.59949 5.23976 9.1443 5.24984 8.68651C5.26963 7.78793 5.64048 6.93283 6.28298 6.30432C6.92548 5.67581 7.78854 5.32387 8.68734 5.32387C9.58613 5.32387 10.4492 5.67581 11.0917 6.30432C11.7342 6.93283 12.1051 7.78793 12.1248 8.68651Z" fill="#E9E9EC"/>
</svg>
