<svg width="50" height="50" viewBox="0 0 50 50" fill="none" xmlns="http://www.w3.org/2000/svg">
<path fill-rule="evenodd" clip-rule="evenodd" d="M21.8751 11.4585V11.6356C21.4036 11.4689 20.899 11.4178 20.4037 11.4865C19.9084 11.5553 19.4368 11.742 19.0285 12.0308C18.6203 12.3196 18.2873 12.7022 18.0576 13.1464C17.8279 13.5906 17.7082 14.0834 17.7084 14.5835V15.8022C17.2369 15.6356 16.7323 15.5844 16.237 15.6532C15.7417 15.722 15.2701 15.9086 14.8619 16.1974C14.4536 16.4863 14.1207 16.8689 13.891 17.313C13.6612 17.7572 13.5415 18.2501 13.5417 18.7502V30.7554C13.5417 36.7814 18.4272 41.6668 24.4532 41.6668C28.2417 41.6668 31.7595 39.7012 33.7449 36.4741L39.7199 26.7658C40.1363 26.0854 40.2774 25.2717 40.1142 24.4908C39.9511 23.7099 39.4961 23.0207 38.842 22.564C38.188 22.1072 37.3843 21.9173 36.595 22.033C35.8057 22.1487 35.0903 22.5613 34.5949 23.1866L32.2917 26.1075V14.5835C32.292 14.0834 32.1723 13.5906 31.9425 13.1464C31.7128 12.7022 31.3799 12.3196 30.9716 12.0308C30.5634 11.742 30.0918 11.5553 29.5965 11.4865C29.1012 11.4178 28.5966 11.4689 28.1251 11.6356V11.4585C28.1251 10.6297 27.7958 9.83484 27.2098 9.24879C26.6237 8.66274 25.8289 8.3335 25.0001 8.3335C24.1713 8.3335 23.3764 8.66274 22.7904 9.24879C22.2043 9.83484 21.8751 10.6297 21.8751 11.4585ZM26.0417 11.4585C26.0417 11.1822 25.932 10.9173 25.7366 10.7219C25.5413 10.5266 25.2763 10.4168 25.0001 10.4168C24.7238 10.4168 24.4589 10.5266 24.2635 10.7219C24.0682 10.9173 23.9584 11.1822 23.9584 11.4585V23.9585H21.8751V14.5835C21.8751 14.3072 21.7653 14.0423 21.57 13.8469C21.3746 13.6516 21.1097 13.5418 20.8334 13.5418C20.5571 13.5418 20.2922 13.6516 20.0968 13.8469C19.9015 14.0423 19.7917 14.3072 19.7917 14.5835V26.0418H17.7084V18.7502C17.7084 18.4739 17.5987 18.2089 17.4033 18.0136C17.208 17.8182 16.943 17.7085 16.6667 17.7085C16.3905 17.7085 16.1255 17.8182 15.9302 18.0136C15.7348 18.2089 15.6251 18.4739 15.6251 18.7502V30.7554C15.6253 32.6773 16.2528 34.5467 17.4121 36.0796C18.5715 37.6125 20.1994 38.7252 22.0487 39.2486C23.898 39.7721 25.8676 39.6778 27.6584 38.98C29.4492 38.2822 30.9633 37.0191 31.9709 35.3825L37.9459 25.6741C38.0864 25.4463 38.1345 25.1734 38.0802 24.9114C38.0259 24.6493 37.8734 24.4179 37.654 24.2647C37.4345 24.1115 37.1648 24.048 36.9001 24.0874C36.6354 24.1267 36.3957 24.2658 36.2303 24.4762L33.9282 27.397C32.7042 28.9491 30.2084 28.0845 30.2084 26.1075V14.5835C30.2084 14.3072 30.0987 14.0423 29.9033 13.8469C29.708 13.6516 29.443 13.5418 29.1667 13.5418C28.8905 13.5418 28.6255 13.6516 28.4302 13.8469C28.2348 14.0423 28.1251 14.3072 28.1251 14.5835V23.9585H26.0417V11.4585Z" fill="#87E7AD"/>
<path fill-rule="evenodd" clip-rule="evenodd" d="M25.0001 4.16675C36.5063 4.16675 45.8334 13.4938 45.8334 25.0001C45.8334 36.5063 36.5063 45.8334 25.0001 45.8334C13.4938 45.8334 4.16675 36.5063 4.16675 25.0001C4.16675 13.4938 13.4938 4.16675 25.0001 4.16675ZM43.7501 25.0001C43.7501 14.6449 35.3553 6.25008 25.0001 6.25008C14.6449 6.25008 6.25008 14.6449 6.25008 25.0001C6.25008 35.3553 14.6449 43.7501 25.0001 43.7501C35.3553 43.7501 43.7501 35.3553 43.7501 25.0001Z" fill="#87E7AD"/>
</svg>
